<svg xmlns="http://www.w3.org/2000/svg" viewBox="0 0 755.45 115.05"><defs><style>.cls-1{fill:#fff;}.cls-2{fill:#fa5767;}</style></defs><title>dreamcod</title><g id="Capa_2" data-name="Capa 2"><g id="Objects"><path class="cls-1" d="M55.53,0h31V69q0,19-10,31A40.74,40.74,0,0,1,62,110.9,43,43,0,0,1,43.91,115Q25.4,115,12.7,102.51A41.12,41.12,0,0,1,0,72a41.67,41.67,0,0,1,12.62-30.3Q25.23,28.89,42.5,28.89q2.74,0,8.3.5v34.2a12.38,12.38,0,0,0-7.64-3,11.14,11.14,0,0,0-8.26,3.53,11.74,11.74,0,0,0-3.44,8.51A11.07,11.07,0,0,0,35,80.89a11.88,11.88,0,0,0,8.55,3.44q12,0,12-16.52Z"/><path class="cls-1" d="M148.33,29.72v33.2a12.22,12.22,0,0,0-5.89-1.83Q134,61.09,134,74v39.26h-31V68.07q0-17.93,9.79-28.6T138.87,28.8A63.66,63.66,0,0,1,148.33,29.72Z"/><path class="cls-1" d="M238.81,76.95H191.75a21.75,21.75,0,0,1,.42-14.69h15.77Q206.27,53,197.56,53A11.27,11.27,0,0,0,188.1,58q-3.65,4.94-3.65,12.66,0,8.05,3.53,13a10.85,10.85,0,0,0,9.26,5q4.65,0,9-4.65l17.68,21.25A43.42,43.42,0,0,1,196.4,115q-18.43,0-31-12.37T152.9,72a41.56,41.56,0,0,1,12.66-30.71q12.66-12.53,31.09-12.53,18,0,30.26,12.24t12.24,30.17Q239.15,73,238.81,76.95Z"/><path class="cls-1" d="M297.67,82.26v32.12a41,41,0,0,1-7,.66q-18.68,0-31.13-12.29T247.11,72a42.87,42.87,0,0,1,43.16-43.08q20.09,0,31.67,11.75t11.58,32.08v40.59h-31V75q0-6.56-3.2-10.46a10.53,10.53,0,0,0-8.59-3.9,12.19,12.19,0,0,0-12,12,11.62,11.62,0,0,0,3.24,8.47,11,11,0,0,0,8.22,3.32A14.08,14.08,0,0,0,297.67,82.26Z"/><path class="cls-1" d="M465.18,113.31h-31V68.65q0-5.15-1.08-7.14a4,4,0,0,0-3.9-2q-5.23,0-5.23,9.21v44.58h-31V68.65q0-5.15-1.12-7.14a4.13,4.13,0,0,0-3.94-2q-5.15,0-5.15,9.21v44.58h-31v-51A32.92,32.92,0,0,1,361,38.64a30.38,30.38,0,0,1,22.74-9.75q13.78,0,24.74,11.62,12.2-11.62,24.4-11.62,15.52,0,24.9,11.29,7.39,8.8,7.39,25.65Z"/><path class="cls-2" d="M534.16,75.21,565,74Q563.62,92,551.59,103.51T522.29,115a41.72,41.72,0,0,1-30.84-12.7q-12.57-12.7-12.58-31.13a40.45,40.45,0,0,1,12.7-30A43,43,0,0,1,564.2,63.58l-31.46,1.16a12.46,12.46,0,0,0-10.29-5.31,11.65,11.65,0,0,0-8.72,3.49,12.08,12.08,0,0,0-3.4,8.8,12.36,12.36,0,0,0,3.61,9,12.14,12.14,0,0,0,9,3.65Q530.83,84.42,534.16,75.21Z"/><path class="cls-2" d="M617.74,28.8a41,41,0,0,1,30.17,12.66A41.53,41.53,0,0,1,660.49,71.8a41.41,41.41,0,0,1-12.74,30.55,43.79,43.79,0,0,1-61.55,0A41.37,41.37,0,0,1,573.42,71.8,41,41,0,0,1,586.2,41.21Q599,28.8,617.74,28.8Zm-.83,30.63A11.33,11.33,0,0,0,608.45,63a12.84,12.84,0,0,0,0,17.64,11.64,11.64,0,0,0,16.93,0,12.84,12.84,0,0,0,0-17.64A11.42,11.42,0,0,0,616.91,59.43Z"/><path class="cls-2" d="M724.41,0h31V69q0,19-10,31a40.75,40.75,0,0,1-14.57,11A43,43,0,0,1,712.79,115q-18.51,0-31.21-12.45A41.12,41.12,0,0,1,668.88,72a41.67,41.67,0,0,1,12.62-30.3q12.62-12.78,29.88-12.78,2.74,0,8.3.5v34.2a12.38,12.38,0,0,0-7.64-3,11.14,11.14,0,0,0-8.26,3.53,11.74,11.74,0,0,0-3.44,8.51,11.07,11.07,0,0,0,3.57,8.26,11.88,11.88,0,0,0,8.55,3.44q12,0,12-16.52Z"/></g></g></svg>